<?xml version="1.0" standalone="no"?>
<!DOCTYPE svg PUBLIC "-//W3C//DTD SVG 20010904//EN"
 "http://www.w3.org/TR/2001/REC-SVG-20010904/DTD/svg10.dtd">
<svg version="1.0" xmlns="http://www.w3.org/2000/svg"
 width="512.000000pt" height="512.000000pt" viewBox="0 0 512.000000 512.000000"
 preserveAspectRatio="xMidYMid meet">

<g transform="translate(0.000000,512.000000) scale(0.100000,-0.100000)"
fill="#008cd2" stroke="#008cd2">
<path d="M2230 5111 c-69 -21 -130 -73 -166 -141 -18 -34 -19 -97 -19 -1755
l0 -1720 22 -41 c27 -50 75 -97 122 -121 34 -17 94 -18 946 -21 830 -2 914 -1
954 14 61 23 114 74 142 137 l24 52 0 1700 0 1700 -29 59 c-30 60 -84 109
-149 133 -37 13 -1803 17 -1847 4z m1216 -196 c4 -8 1 -22 -6 -30 -19 -23
-561 -22 -584 0 -8 9 -13 22 -10 30 9 23 592 22 600 0z m632 -1667 l-3 -1463
-927 -3 -928 -2 0 1465 0 1465 930 0 930 0 -2 -1462z m-869 -1572 c40 -21 64
-64 64 -111 0 -133 -177 -174 -238 -55 -28 55 -12 117 41 159 32 25 92 28 133
7z"/>
<path d="M1015 3786 c-60 -28 -97 -66 -124 -126 -20 -45 -21 -56 -21 -1756 l0
-1710 26 -53 c30 -60 95 -113 159 -131 28 -8 308 -10 940 -8 855 3 902 4 935
22 49 26 98 74 123 121 22 39 22 50 25 513 l3 472 -91 0 -90 0 0 -325 0 -325
-930 0 -930 0 0 1580 0 1580 400 0 400 0 0 85 0 85 -387 0 c-387 0 -388 0
-438 -24z m1011 -3416 c69 -34 94 -113 54 -177 -53 -88 -175 -81 -220 11 -26
55 -18 97 26 141 29 29 46 37 88 44 5 0 29 -8 52 -19z m-385 -58 c28 -23 30
-73 4 -102 -16 -18 -31 -20 -158 -20 -117 0 -144 3 -159 17 -24 22 -24 77 2
103 18 18 33 20 154 20 115 0 137 -3 157 -18z m976 -4 c28 -27 30 -67 3 -96
-19 -21 -30 -22 -160 -22 -127 0 -142 2 -160 20 -26 26 -25 68 2 97 20 22 28
23 157 23 125 0 136 -2 158 -22z"/>
</g>
</svg>
